<?xml version="1.0" encoding="utf-8"?>
<!-- Generator: Adobe Illustrator 24.0.2, SVG Export Plug-In . SVG Version: 6.00 Build 0)  -->
<svg version="1.1" id="Layer_1" xmlns="http://www.w3.org/2000/svg" xmlns:xlink="http://www.w3.org/1999/xlink" x="0px" y="0px"
	  style="enable-background:new 0 0 283.46 283.46;" xml:space="preserve">
<style type="text/css">
	.st0{fill:#010101;}
	.st1{fill:#FFFFFF;}
</style>
<g>
	<g>
		<g>
			<path class="st0" d="M17.94,193.81l3.98-17.07l4.05-0.16c1.37-0.05,3.51-0.24,6.36-0.56c3.41-0.38,4.94-0.77,5.54-0.98
				c1.33-0.44,2.25-1.03,2.83-1.79c0.78-1.03,1.31-2.2,1.63-3.57l20.73-89.69c0.27-1.13,0.45-2.04,0.55-2.72
				c0.07-0.5,0.12-0.88,0.13-1.15c0-0.3,0-0.65-1.1-1.26c-1.36-0.75-4.33-1.85-10.71-2.78l-5.72-0.83l3.81-16.34h127.44l-9.94,43.36
				H151.9l-0.67-4.54c-0.72-4.88-2.49-9.43-5.26-13.52c-2.39-3.53-4.78-5.65-6.92-6.12c-1.04-0.26-2.85-0.55-6.34-0.64
				c-3.14-0.09-9.5-0.13-11.57-0.13h-13.52l-9.12,39.45h5.63c4.79,0,7.39-0.62,8.72-1.13c2.04-0.79,3.98-1.93,5.78-3.38
				c0.67-0.55,2.23-2.12,4.78-6.16c2.07-3.27,3.54-6.04,4.37-8.23l1.31-3.42h17.13l-14.85,64.15h-16.32v-8.66
				c0-2.34-0.26-4.8-0.76-7.32c-0.63-3.15-1.19-4.02-1.21-4.05c-0.87-1.27-1.93-2.05-3.35-2.46c-2.1-0.61-4.59-0.92-7.4-0.92h-8.09
				l-7.3,31.59c-0.4,1.7-0.77,3.57-1.11,5.58c-0.43,2.53-0.47,3.41-0.47,3.62c0,1.8,0.39,2.32,0.39,2.32
				c0.89,0.34,3.79,1.13,12.1,1.13s14.37-0.35,17.99-1.04c3.87-0.73,5.75-1.73,6.65-2.43c3.23-2.69,7.37-7.1,12.19-13.01
				c4.89-6,8.22-10.42,9.89-13.16l1.56-2.54h29.8l-27.9,50.59H17.94z"/>
		</g>
		<g>
			<path class="st1" d="M24.17,188.87l1.71-7.34l0.29-0.01c1.49-0.06,3.74-0.26,6.71-0.59c2.94-0.33,5.15-0.73,6.57-1.2
				c2.27-0.75,4.01-1.93,5.2-3.49c1.2-1.58,2.04-3.41,2.51-5.46L67.87,81.1c0.3-1.24,0.51-2.3,0.63-3.13
				c0.12-0.83,0.18-1.45,0.18-1.84c0-2.41-1.19-4.23-3.65-5.59c-2.51-1.39-6.68-2.51-12.39-3.35l-0.4-0.06l1.7-7.29h117.31
				l-7.67,33.47h-7.4l-0.05-0.32c-0.83-5.62-2.87-10.85-6.05-15.56c-3.16-4.67-6.51-7.42-9.96-8.18c-1.66-0.41-4.1-0.67-7.26-0.76
				c-3.31-0.09-9.8-0.14-11.71-0.14h-17.45l-11.4,49.33h11.85c4.46,0,8-0.49,10.51-1.47c2.52-0.97,4.9-2.37,7.1-4.15
				c1.65-1.35,3.62-3.83,5.85-7.37c2.24-3.55,3.86-6.61,4.81-9.11l0.09-0.24h7.51l-12.56,54.27H120v-3.72
				c0-2.67-0.29-5.46-0.85-8.29c-0.56-2.8-1.23-4.77-1.98-5.87c-1.51-2.21-3.55-3.69-6.05-4.42c-2.55-0.74-5.51-1.12-8.77-1.12
				H90.32l-8.19,35.42c-0.42,1.78-0.81,3.75-1.17,5.86c-0.36,2.08-0.54,3.58-0.54,4.46c0,3.72,1.16,5.99,3.56,6.93
				c2.48,0.97,7.14,1.46,13.88,1.46c8.62,0,14.98-0.38,18.92-1.12c3.9-0.74,6.86-1.88,8.79-3.41c3.58-2.98,7.94-7.62,12.96-13.77
				c5.03-6.17,8.49-10.78,10.28-13.7l0.11-0.18h18.71l-23.35,40.71H24.17z"/>
			<path class="st0" d="M170.77,60.22l-7.5,32.72h-6.78c-0.84-5.7-2.88-10.94-6.11-15.72c-3.23-4.77-6.62-7.55-10.19-8.33
				c-1.69-0.42-4.13-0.68-7.33-0.76c-3.2-0.09-9.61-0.14-11.72-0.14h-17.74l-11.58,50.08h12.32c4.53,0,8.07-0.5,10.64-1.49
				c2.57-0.99,4.97-2.4,7.2-4.2c1.69-1.39,3.67-3.87,5.93-7.46c2.26-3.59,3.88-6.64,4.85-9.18h6.78l-12.38,53.52h-6.78v-3.34
				c0-2.71-0.29-5.5-0.86-8.36c-0.57-2.86-1.25-4.87-2.04-6.01c-1.57-2.29-3.65-3.81-6.25-4.56c-2.6-0.75-5.56-1.13-8.88-1.13H90.02
				l-8.25,35.71c-0.42,1.81-0.81,3.77-1.18,5.88c-0.36,2.11-0.54,3.62-0.54,4.52c0,3.86,1.27,6.28,3.8,7.28
				c2.53,0.99,7.2,1.49,14.01,1.49c8.68,0,15.01-0.38,18.99-1.13c3.98-0.75,6.96-1.91,8.95-3.48c3.62-3.01,7.95-7.62,13.02-13.83
				c5.06-6.21,8.5-10.79,10.31-13.74h17.86l-22.92,39.96H24.64l1.54-6.6c1.51-0.06,3.75-0.26,6.73-0.59
				c2.98-0.33,5.2-0.74,6.64-1.22c2.35-0.78,4.14-1.99,5.38-3.62c1.23-1.63,2.09-3.49,2.58-5.6l20.73-89.68
				c0.3-1.27,0.51-2.32,0.63-3.16c0.12-0.84,0.18-1.48,0.18-1.9c0-2.53-1.28-4.5-3.84-5.92c-2.56-1.42-6.73-2.54-12.52-3.39
				l1.54-6.6H170.77 M171.71,59.47h-0.94H54.23h-0.6l-0.14,0.58l-1.54,6.6l-0.18,0.79l0.81,0.12c5.67,0.83,9.79,1.94,12.27,3.3
				c2.33,1.29,3.46,3.01,3.46,5.26c0,0.38-0.06,0.98-0.17,1.79c-0.12,0.82-0.33,1.86-0.62,3.1L46.78,170.7
				c-0.46,2-1.28,3.79-2.44,5.32c-1.14,1.5-2.83,2.63-5.02,3.36c-1.39,0.46-3.57,0.86-6.49,1.19c-2.96,0.33-5.2,0.52-6.68,0.58
				l-0.57,0.02l-0.13,0.56l-1.54,6.6l-0.21,0.92h0.94h119.42h0.43l0.22-0.38l22.92-39.96l0.64-1.12h-1.29h-17.86h-0.42l-0.22,0.36
				c-1.78,2.91-5.23,7.5-10.25,13.66c-5.01,6.14-9.35,10.76-12.92,13.73c-1.87,1.47-4.77,2.59-8.61,3.32
				c-3.91,0.74-10.25,1.12-18.85,1.12c-6.68,0-11.31-0.48-13.74-1.44c-2.23-0.88-3.32-3.03-3.32-6.58c0-0.85,0.18-2.33,0.53-4.39
				c0.36-2.1,0.75-4.06,1.17-5.83l8.12-35.13h11.73c3.23,0,6.15,0.37,8.67,1.1c2.41,0.7,4.38,2.14,5.84,4.27
				c0.72,1.06,1.37,2.99,1.92,5.74c0.56,2.81,0.85,5.57,0.85,8.21v3.34v0.75h0.75h6.78h0.6l0.13-0.58l12.38-53.52l0.21-0.92h-0.94
				h-6.78h-0.52l-0.18,0.48c-0.94,2.47-2.55,5.51-4.78,9.04c-2.21,3.5-4.15,5.95-5.77,7.28c-2.16,1.75-4.52,3.12-7,4.08
				c-2.47,0.96-5.96,1.44-10.37,1.44H92.76l11.23-48.58h17.15c1.91,0,8.39,0.04,11.7,0.14c3.13,0.09,5.55,0.34,7.17,0.74
				c3.37,0.74,6.64,3.44,9.75,8.02c3.15,4.66,5.17,9.84,5.99,15.41l0.09,0.64h0.65h6.78h0.6l0.13-0.58l7.5-32.72L171.71,59.47
				L171.71,59.47z"/>
		</g>
	</g>
	<polygon class="st0" points="184.29,85.12 153.22,138.94 160.38,138.94 184.29,97.53 254.53,219.19 114.05,219.19 126.7,197.28 
		119.53,197.28 103.05,225.83 265.53,225.83 	"/>
</g>
</svg>
