<?xml version="1.0" encoding="UTF-8"?>
<svg xmlns="http://www.w3.org/2000/svg" version="1.1" viewBox="0 0 1920 1080">
  <defs>
    <style>
      .cls-1 {
        fill: #000;
      }

      .cls-2 {
        fill: #fff;
      }
    </style>
  </defs>
  <!-- Generator: Adobe Illustrator 28.6.0, SVG Export Plug-In . SVG Version: 1.2.0 Build 709)  -->
  <g>
    <g id="Layer_1">
      <path class="cls-1" d="M144.6,145.8c-1.7,2.7-5,7.2-9.9,13.2-4.8,5.9-9,10.3-12.2,13-.9.7-2.8,1.7-6.6,2.4-3.6.7-9.7,1-18,1s-11.2-.8-12.1-1.1c0,0-.4-.5-.4-2.3s0-1.1.5-3.6c.3-2,.7-3.9,1.1-5.6l7.3-31.6h8.1c2.8,0,5.3.3,7.4.9,1.4.4,2.5,1.2,3.4,2.5,0,0,.6.9,1.2,4,.5,2.5.8,5,.8,7.3v8.7h16.3l14.8-64.1h-17.1l-1.3,3.4c-.8,2.2-2.3,5-4.4,8.2-2.5,4-4.1,5.6-4.8,6.2-1.8,1.5-3.7,2.6-5.8,3.4-1.3.5-3.9,1.1-8.7,1.1h-5.6l9.1-39.5h13.5c2.1,0,8.4,0,11.6.1,3.5,0,5.3.4,6.3.6,2.1.5,4.5,2.6,6.9,6.1,2.8,4.1,4.5,8.6,5.3,13.5l.7,4.5h15.6l9.9-43.4H50l-3.8,16.3,5.7.8c6.4.9,9.4,2,10.7,2.8,1.1.6,1.1,1,1.1,1.3,0,.3,0,.7-.1,1.2,0,.7-.3,1.6-.5,2.7l-20.7,89.7c-.3,1.4-.9,2.5-1.6,3.6-.6.8-1.5,1.3-2.8,1.8-.6.2-2.1.6-5.5,1-2.9.3-5,.5-6.4.6l-4,.2-4,17.1h0s130.1,0,130.1,0l27.9-50.6h-29.8l-1.6,2.5ZM68.2,81.2c.3-1.3.5-2.3.6-3.2.1-.8.2-1.5.2-1.9,0-2.5-1.3-4.5-3.8-5.9-2.6-1.4-6.7-2.5-12.5-3.4l1.5-6.6h116.5l-7.5,32.7h-6.8c-.8-5.7-2.9-10.9-6.1-15.7-3.2-4.8-6.6-7.5-10.2-8.3-1.7-.4-4.1-.7-7.3-.8-3.2,0-9.6-.1-11.7-.1h-17.7l-11.6,50.1h12.3c4.5,0,8.1-.5,10.6-1.5,2.6-1,5-2.4,7.2-4.2,1.7-1.4,3.7-3.9,5.9-7.5,2.3-3.6,3.9-6.6,4.9-9.2h6.8l-12.4,53.5h-6.8v-3.3c0-2.7-.3-5.5-.9-8.4s-1.2-4.9-2-6c-1.6-2.3-3.6-3.8-6.2-4.6-2.6-.8-5.6-1.1-8.9-1.1h-12.3l-8.2,35.7c-.4,1.8-.8,3.8-1.2,5.9-.4,2.1-.5,3.6-.5,4.5,0,3.9,1.3,6.3,3.8,7.3,2.5,1,7.2,1.5,14,1.5s15-.4,19-1.1c4-.8,7-1.9,9-3.5,3.6-3,8-7.6,13-13.8,5.1-6.2,8.5-10.8,10.3-13.7h17.9l-22.9,40H24.6l1.5-6.6c1.5,0,3.8-.3,6.7-.6,3-.3,5.2-.7,6.6-1.2,2.4-.8,4.1-2,5.4-3.6,1.2-1.6,2.1-3.5,2.6-5.6l20.7-89.7Z"/>
      <path class="cls-2" d="M148.8,148.3c-1.8,2.9-5.2,7.5-10.3,13.7-5,6.1-9.4,10.8-13,13.8-1.9,1.5-4.9,2.7-8.8,3.4-3.9.7-10.3,1.1-18.9,1.1s-11.4-.5-13.9-1.5c-2.4-.9-3.6-3.2-3.6-6.9s.2-2.4.5-4.5c.4-2.1.8-4.1,1.2-5.9l8.2-35.4h12c3.3,0,6.2.4,8.8,1.1,2.5.7,4.5,2.2,6,4.4.8,1.1,1.4,3.1,2,5.9.6,2.8.8,5.6.8,8.3v3.7h7.5l12.6-54.3h-7.5v.2c-1,2.5-2.7,5.6-4.9,9.1-2.2,3.5-4.2,6-5.8,7.4-2.2,1.8-4.6,3.2-7.1,4.2-2.5,1-6,1.5-10.5,1.5h-11.9l11.4-49.3h17.5c1.9,0,8.4,0,11.7.1,3.2,0,5.6.4,7.3.8,3.5.8,6.8,3.5,10,8.2,3.2,4.7,5.2,9.9,6,15.6v.3h7.5l7.7-33.5H53.9l-1.7,7.3h.4c5.7.9,9.9,2,12.4,3.4,2.5,1.4,3.6,3.2,3.6,5.6s0,1-.2,1.8c-.1.8-.3,1.9-.6,3.1l-20.7,89.7c-.5,2-1.3,3.9-2.5,5.5-1.2,1.6-2.9,2.7-5.2,3.5-1.4.5-3.6.9-6.6,1.2-3,.3-5.2.5-6.7.6h-.3s-1.7,7.3-1.7,7.3h120.1l23.3-40.7h-18.7v.2ZM167,148.6l-22.9,40H24.6l1.5-6.6c1.5,0,3.8-.3,6.7-.6,3-.3,5.2-.7,6.6-1.2,2.4-.8,4.1-2,5.4-3.6,1.2-1.6,2.1-3.5,2.6-5.6l20.7-89.7c.3-1.3.5-2.3.6-3.2.1-.8.2-1.5.2-1.9,0-2.5-1.3-4.5-3.8-5.9-2.6-1.4-6.7-2.5-12.5-3.4l1.5-6.6h116.5l-7.5,32.7h-6.8c-.8-5.7-2.9-10.9-6.1-15.7-3.2-4.8-6.6-7.5-10.2-8.3-1.7-.4-4.1-.7-7.3-.8-3.2,0-9.6-.1-11.7-.1h-17.7l-11.6,50.1h12.3c4.5,0,8.1-.5,10.6-1.5,2.6-1,5-2.4,7.2-4.2,1.7-1.4,3.7-3.9,5.9-7.5,2.3-3.6,3.9-6.6,4.9-9.2h6.8l-12.4,53.5h-6.8v-3.3c0-2.7-.3-5.5-.9-8.4s-1.2-4.9-2-6c-1.6-2.3-3.6-3.8-6.2-4.6-2.6-.8-5.6-1.1-8.9-1.1h-12.3l-8.2,35.7c-.4,1.8-.8,3.8-1.2,5.9-.4,2.1-.5,3.6-.5,4.5,0,3.9,1.3,6.3,3.8,7.3,2.5,1,7.2,1.5,14,1.5s15-.4,19-1.1c4-.8,7-1.9,9-3.5,3.6-3,8-7.6,13-13.8,5.1-6.2,8.5-10.8,10.3-13.7h17.9Z"/>
      <path class="cls-1" d="M121.1,68.7c1.9,0,8.4,0,11.7.1,3.1,0,5.5.3,7.2.7,3.4.7,6.6,3.4,9.8,8,3.1,4.7,5.2,9.8,6,15.4v.6h8.1v-.6c.1,0,7.6-32.7,7.6-32.7l.2-.9H53.6v.6c-.1,0-1.7,6.6-1.7,6.6l-.2.8h.8c5.7,1,9.8,2.1,12.3,3.4,2.3,1.3,3.5,3,3.5,5.3s0,1-.2,1.8c-.1.8-.3,1.9-.6,3.1l-20.7,89.7c-.5,2-1.3,3.8-2.4,5.3-1.1,1.5-2.8,2.6-5,3.4-1.4.5-3.6.9-6.5,1.2-3,.3-5.2.5-6.7.6h-.6s-.1.6-.1.6l-1.5,6.6-.2.9h120.8l.2-.4,22.9-40,.6-1.1h-19.6l-.2.4c-1.8,2.9-5.2,7.5-10.2,13.7-5,6.1-9.3,10.8-12.9,13.7-1.9,1.5-4.8,2.6-8.6,3.3-3.9.7-10.2,1.1-18.9,1.1s-11.3-.5-13.7-1.4c-2.2-.9-3.3-3-3.3-6.6s.2-2.3.5-4.4c.4-2.1.8-4.1,1.2-5.8l8.1-35.1h11.7c3.2,0,6.1.4,8.7,1.1,2.4.7,4.4,2.1,5.8,4.3.7,1.1,1.4,3,1.9,5.7.6,2.8.8,5.6.8,8.2v4.1h8.1v-.6c.1,0,12.5-53.5,12.5-53.5l.2-.9h-8.2l-.2.5c-.9,2.5-2.5,5.5-4.8,9-2.2,3.5-4.2,5.9-5.8,7.3-2.2,1.8-4.5,3.1-7,4.1-2.5,1-6,1.4-10.4,1.4h-11.4l11.2-48.6h17.2ZM91.8,118.1h12.3c4.5,0,8.1-.5,10.6-1.5,2.6-1,5-2.4,7.2-4.2,1.7-1.4,3.7-3.9,5.9-7.5,2.3-3.6,3.9-6.6,4.9-9.2h6.8l-12.4,53.5h-6.8v-3.3c0-2.7-.3-5.5-.9-8.4s-1.2-4.9-2-6c-1.6-2.3-3.6-3.8-6.2-4.6-2.6-.8-5.6-1.1-8.9-1.1h-12.3l-8.2,35.7c-.4,1.8-.8,3.8-1.2,5.9-.4,2.1-.5,3.6-.5,4.5,0,3.9,1.3,6.3,3.8,7.3,2.5,1,7.2,1.5,14,1.5s15-.4,19-1.1c4-.8,7-1.9,9-3.5,3.6-3,8-7.6,13-13.8,5.1-6.2,8.5-10.8,10.3-13.7h17.9l-22.9,40H24.6l1.5-6.6c1.5,0,3.8-.3,6.7-.6,3-.3,5.2-.7,6.6-1.2,2.4-.8,4.1-2,5.4-3.6,1.2-1.6,2.1-3.5,2.6-5.6l20.7-89.7c.3-1.3.5-2.3.6-3.2.1-.8.2-1.5.2-1.9,0-2.5-1.3-4.5-3.8-5.9-2.6-1.4-6.7-2.5-12.5-3.4l1.5-6.6h116.5l-7.5,32.7h-6.8c-.8-5.7-2.9-10.9-6.1-15.7-3.2-4.8-6.6-7.5-10.2-8.3-1.7-.4-4.1-.7-7.3-.8-3.2,0-9.6-.1-11.7-.1h-17.7l-11.6,50.1Z"/>
      <polygon class="cls-1" points="184.3 85.1 153.2 138.9 160.4 138.9 184.3 97.5 254.5 219.2 114.1 219.2 126.7 197.3 119.5 197.3 103.1 225.8 265.5 225.8 184.3 85.1"/>
    </g>
  </g>
</svg>
