<?xml version="1.0" encoding="utf-8"?>
<!-- Generator: Adobe Illustrator 24.0.2, SVG Export Plug-In . SVG Version: 6.00 Build 0)  -->
<svg version="1.1" id="Layer_1" xmlns="http://www.w3.org/2000/svg" xmlns:xlink="http://www.w3.org/1999/xlink" x="0px" y="0px"
	 viewBox="0 0 283.46 283.46" style="enable-background:new 0 0 283.46 283.46;" xml:space="preserve">
<g>
	<g>
		<g>
			<path d="M23.48,188.9l2.09-8.96l0.87-0.03c1.49-0.06,3.7-0.25,6.76-0.59c2.94-0.32,5.13-0.72,6.51-1.19
				c2.16-0.72,3.81-1.82,4.92-3.28c1.15-1.52,1.96-3.28,2.41-5.26l21.07-91.13c0.3-1.25,0.51-2.29,0.63-3.12
				c0.11-0.8,0.17-1.4,0.17-1.77c0-2.14-1.08-3.78-3.32-5.02c-2.47-1.36-6.62-2.48-12.33-3.31l-1.23-0.18l2.05-8.8h120.77
				L166.7,91.8h-8.79l-0.14-0.98c-0.83-5.6-2.86-10.81-6.03-15.5c-3.1-4.58-6.34-7.27-9.65-7.99c-1.66-0.41-4.08-0.66-7.24-0.75
				c-3.38-0.1-9.95-0.14-11.88-0.14h-17.12l-11.23,48.61h11.08c4.44,0,7.94-0.48,10.4-1.44c2.48-0.96,4.84-2.34,7.01-4.09
				c1.61-1.32,3.55-3.78,5.78-7.3c2.25-3.57,3.88-6.64,4.82-9.12l0.28-0.74h9.12L130,149.03h-8.94v-4.54c0-2.66-0.29-5.44-0.85-8.27
				c-0.68-3.41-1.41-4.98-1.89-5.69c-1.46-2.12-3.33-3.49-5.73-4.19c-2.53-0.73-5.45-1.1-8.7-1.1H92.26l-8.18,35.4
				c-0.42,1.81-0.82,3.79-1.18,5.91c-0.35,2.07-0.53,3.55-0.53,4.4c0,3.43,1.02,5.5,3.13,6.33c2.43,0.95,7.08,1.44,13.82,1.44
				c8.71,0,15.13-0.38,19.08-1.13c3.84-0.73,6.74-1.84,8.6-3.31c3.58-2.99,7.98-7.66,13.05-13.88c5.09-6.24,8.59-10.9,10.39-13.84
				l0.33-0.55h20.76l-24.6,42.89H23.48z"/>
		</g>
		<g>
			<path d="M173.41,57.4l-7.62,33.25h-6.89c-0.86-5.8-2.93-11.12-6.21-15.97s-6.73-7.67-10.35-8.47c-1.72-0.43-4.2-0.69-7.45-0.78
				c-3.25-0.09-9.76-0.14-11.91-0.14h-18.03l-11.76,50.89h12.52c4.6,0,8.21-0.5,10.81-1.52c2.61-1.01,5.05-2.43,7.32-4.27
				c1.72-1.41,3.73-3.93,6.03-7.58c2.3-3.64,3.94-6.75,4.92-9.32h6.89l-12.58,54.38h-6.89v-3.4c0-2.76-0.29-5.59-0.88-8.5
				c-0.58-2.91-1.27-4.94-2.07-6.11c-1.6-2.33-3.71-3.87-6.35-4.64c-2.64-0.77-5.65-1.15-9.02-1.15H91.35l-8.39,36.29
				c-0.43,1.84-0.83,3.83-1.19,5.97c-0.37,2.14-0.55,3.67-0.55,4.59c0,3.92,1.29,6.38,3.86,7.4c2.57,1.01,7.32,1.52,14.24,1.52
				c8.82,0,15.25-0.38,19.29-1.15c4.04-0.77,7.07-1.94,9.1-3.54c3.67-3.06,8.08-7.75,13.23-14.05c5.15-6.31,8.64-10.96,10.47-13.96
				h18.15l-23.29,40.6H24.91l1.56-6.71c1.53-0.06,3.81-0.26,6.84-0.6c3.03-0.34,5.28-0.75,6.75-1.24c2.39-0.79,4.21-2.02,5.47-3.67
				c1.25-1.65,2.13-3.55,2.62-5.7l21.07-91.13c0.31-1.29,0.52-2.36,0.64-3.22c0.12-0.86,0.18-1.5,0.18-1.93
				c0-2.57-1.3-4.58-3.91-6.02c-2.6-1.44-6.84-2.59-12.72-3.44l1.56-6.71H173.41z"/>
		</g>
	</g>
	<g>
		<polygon points="181.44,84.22 149.86,138.91 186.77,138.91 152.67,198.2 115.63,198.2 98.88,227.21 263.99,227.21 		"/>
	</g>
</g>
</svg>
